# xmcd
#
# Track frame offsets: 
#        150
#        10832
#        25097
#        36547
#        50002
#        60142
#        70225
#        83250
#        95970
#        105425
#        116290
#        126707
#
# Disc length: 1841 seconds
#
# Revision: 1
# Processed by: cddbd v1.5.2PL0 Copyright (c) Steve Scherf et al.
# Submitted via: ExactAudioCopy v1.1
#
DISCID=98072f0c
DTITLE=Paul Anka - I Grandi Successi Originali cd2
DYEAR=1900
DGENRE=Oldies
TTITLE0=Ogni notte
TTITLE1=Deve essere la nostra estate
TTITLE2=Il piacere di vederti
TTITLE3=Lontana dagli occhi miei
TTITLE4=Quando ero soldato
TTITLE5=Chitarra, vino e amore
TTITLE6=La verità
TTITLE7=Un ricordo per te
TTITLE8=Sono splendidi gli occhi tuoi
TTITLE9=Stasera resta con me
TTITLE10=Non giocare con l'amore
TTITLE11=Domani prendo il primo treno
EXTD=
EXTT0=
EXTT1=
EXTT2=
EXTT3=
EXTT4=
EXTT5=
EXTT6=
EXTT7=
EXTT8=
EXTT9=
EXTT10=
EXTT11=
PLAYORDER=
